# xmcd CD database file
#
# Track frame offsets:
#	150
#	13850
#	31116
#	53305
#	70612
#	91318
#	113467
#	134714
#	152744
#	174023
#	198746
#	235366
#	255491
#	274262
#	277114
#
# Disc length: 4281 seconds
#
# Revision: 11
# Processed by: cddbd v1.5.2PL0 Copyright (c) Steve Scherf et al.
# Submitted via: CDex 1.51
#
DISCID=c610b70f
DTITLE=Musiq Soulchild - Soulstar
DYEAR=2003
DGENRE=Soul
TTITLE0=soulstar [feat. DJ Aktive and Carol Riddick]
TTITLE1=youloveme
TTITLE2=womanopoly
TTITLE3=forthenight [feat. AAries]
TTITLE4=infatueighties
TTITLE5=whoknows
TTITLE6=babymother
TTITLE7=missyou
TTITLE8=momentinlife [feat. Kindred The Family Soul and Cee-Lo]
TTITLE9=thereason
TTITLE10=dontstop [feat. Bilal] - her
TTITLE11=whereareyougoing
TTITLE12=romancipation
TTITLE13=interlude
TTITLE14=givemorelove - leaveamessage
EXTD=www.RapMusicGuide.com\n YEAR: 2003
EXTT0=
EXTT1=
EXTT2=
EXTT3=
EXTT4=
EXTT5=
EXTT6=
EXTT7=
EXTT8=
EXTT9=
EXTT10=
EXTT11=
EXTT12=
EXTT13=
EXTT14=
PLAYORDER=
